<svg id="visual" viewBox="0 0 900 600" width="900" height="600" xmlns="http://www.w3.org/2000/svg" xmlns:xlink="http://www.w3.org/1999/xlink" version="1.1"><rect x="0" y="0" width="900" height="600" fill="#140021"></rect><path d="M0 301L129 301L129 257L257 257L257 252L386 252L386 293L514 293L514 319L643 319L643 261L771 261L771 263L900 263L900 283L900 601L900 601L771 601L771 601L643 601L643 601L514 601L514 601L386 601L386 601L257 601L257 601L129 601L129 601L0 601Z" fill="#9900ff"></path><path d="M0 389L129 389L129 395L257 395L257 452L386 452L386 436L514 436L514 371L643 371L643 351L771 351L771 384L900 384L900 361L900 601L900 601L771 601L771 601L643 601L643 601L514 601L514 601L386 601L386 601L257 601L257 601L129 601L129 601L0 601Z" fill="#7700c6"></path><path d="M0 523L129 523L129 500L257 500L257 495L386 495L386 500L514 500L514 449L643 449L643 458L771 458L771 499L900 499L900 465L900 601L900 601L771 601L771 601L643 601L643 601L514 601L514 601L386 601L386 601L257 601L257 601L129 601L129 601L0 601Z" fill="#560090"></path></svg>