<svg id="visual" viewBox="0 0 900 600" width="900" height="600" xmlns="http://www.w3.org/2000/svg" xmlns:xlink="http://www.w3.org/1999/xlink" version="1.1"><rect x="0" y="0" width="900" height="600" fill="#002233"></rect><path d="M0 474L21.5 477.2C43 480.3 86 486.7 128.8 489.5C171.7 492.3 214.3 491.7 257.2 478C300 464.3 343 437.7 385.8 435.7C428.7 433.7 471.3 456.3 514.2 473.7C557 491 600 503 642.8 491.8C685.7 480.7 728.3 446.3 771.2 436.3C814 426.3 857 440.7 878.5 447.8L900 455L900 601L878.5 601C857 601 814 601 771.2 601C728.3 601 685.7 601 642.8 601C600 601 557 601 514.2 601C471.3 601 428.7 601 385.8 601C343 601 300 601 257.2 601C214.3 601 171.7 601 128.8 601C86 601 43 601 21.5 601L0 601Z" fill="#0066FF" stroke-linecap="round" stroke-linejoin="miter"></path></svg>